<?xml version="1.0" encoding="UTF-8" standalone="no"?>
<!DOCTYPE svg PUBLIC "-//W3C//DTD SVG 1.1//EN" "http://www.w3.org/Graphics/SVG/1.1/DTD/svg11.dtd">
<svg xmlns="http://www.w3.org/2000/svg" version="1.1" viewBox="0.00 0.00 2048.00 1024.00">
<path fill="#122d46" d="
  M 1077.12 167.75
  L 1089.31 167.75
  A 0.47 0.47 0.0 0 1 1089.71 168.47
  L 1074.99 191.45
  A 0.47 0.47 0.0 0 1 1074.61 191.67
  L 1065.94 191.94
  A 0.47 0.47 0.0 0 1 1065.51 191.26
  L 1076.69 168.02
  A 0.47 0.47 0.0 0 1 1077.12 167.75
  Z"
/>
<path fill="#122d46" d="
  M 872.49 205.47
  A 0.27 0.27 0.0 0 0 872.94 205.72
  Q 882.99 195.65 895.20 201.15
  C 902.97 204.65 901.83 216.93 900.16 223.79
  Q 897.89 233.12 895.81 242.51
  C 895.04 246.04 894.72 251.18 899.67 251.46
  C 906.18 251.84 908.77 245.78 910.88 240.78
  Q 911.09 240.27 911.65 240.26
  L 915.54 240.24
  Q 916.24 240.24 916.06 240.92
  C 913.75 249.33 908.65 258.47 900.62 262.04
  C 886.99 268.09 875.36 259.52 878.36 244.52
  Q 880.73 232.62 883.27 220.76
  C 883.99 217.36 884.06 210.29 878.43 210.71
  C 872.91 211.13 869.81 219.08 868.81 223.67
  Q 864.59 242.95 860.59 262.33
  A 1.15 1.14 -84.1 0 1 859.47 263.25
  L 842.92 263.25
  A 0.69 0.69 0.0 0 1 842.25 262.41
  L 850.62 222.99
  A 0.22 0.22 0.0 0 0 850.35 222.73
  L 840.41 225.46
  Q 839.93 225.59 839.89 226.09
  C 838.81 239.91 832.35 255.96 819.22 261.72
  C 808.69 266.35 793.00 262.99 790.13 250.16
  A 0.40 0.40 0.0 0 0 789.41 250.01
  C 780.12 262.80 762.97 266.96 748.12 263.72
  C 735.80 261.03 731.42 250.87 730.72 239.25
  C 729.07 211.96 742.00 164.90 777.82 168.11
  C 790.63 169.26 798.32 176.26 795.30 189.83
  C 793.62 197.34 785.48 198.48 780.30 193.74
  Q 779.88 193.36 780.31 192.99
  Q 786.03 188.01 785.73 181.27
  C 785.38 173.13 777.07 172.34 771.54 176.04
  C 767.66 178.64 763.94 184.52 761.67 189.26
  Q 750.98 211.62 751.78 236.76
  C 752.54 260.66 778.41 254.20 789.05 243.20
  Q 789.39 242.85 789.42 242.36
  C 790.30 227.48 796.82 208.75 811.15 201.46
  C 817.97 197.99 829.07 196.68 835.07 202.35
  C 839.68 206.70 840.08 212.72 840.59 218.58
  Q 840.63 219.05 841.10 219.05
  Q 846.54 219.01 851.52 216.78
  Q 851.99 216.57 852.10 216.07
  L 855.45 200.19
  Q 855.53 199.78 855.94 199.78
  L 873.29 199.47
  Q 873.90 199.46 873.76 200.05
  L 872.49 205.47
  Z
  M 828.03 206.79
  C 813.61 201.70 802.53 247.56 811.92 251.70
  C 822.48 256.35 828.49 233.08 829.43 226.49
  Q 829.50 225.97 829.02 225.73
  C 824.09 223.22 825.94 215.95 829.80 213.53
  Q 830.27 213.24 830.13 212.71
  L 828.75 207.56
  Q 828.60 206.99 828.03 206.79
  Z"
/>
<path fill="#122d46" d="
  M 1218.08 204.25
  A 0.30 0.29 -48.0 0 0 1218.65 204.22
  L 1224.28 177.34
  Q 1224.40 176.78 1224.96 176.70
  L 1242.76 174.31
  A 0.33 0.33 0.0 0 1 1243.13 174.70
  Q 1235.67 209.46 1228.42 244.18
  Q 1227.81 247.08 1228.70 249.80
  Q 1228.87 250.30 1229.33 250.55
  C 1235.72 253.94 1241.70 248.16 1242.05 241.87
  C 1242.92 226.17 1250.24 205.55 1266.80 199.95
  C 1281.53 194.97 1295.90 202.03 1288.25 219.76
  C 1283.83 230.00 1272.63 236.23 1261.76 237.31
  Q 1261.27 237.36 1261.17 237.84
  C 1260.15 242.57 1260.17 252.08 1266.79 252.93
  C 1277.10 254.26 1284.14 249.25 1290.79 241.96
  C 1292.43 240.17 1293.65 239.80 1295.93 240.33
  Q 1296.44 240.44 1296.18 240.89
  Q 1290.25 251.36 1281.51 257.51
  C 1270.51 265.25 1250.08 268.33 1243.26 252.82
  A 0.36 0.36 0.0 0 0 1242.63 252.76
  C 1235.62 263.00 1215.12 269.87 1211.05 252.94
  Q 1210.89 252.24 1210.46 252.81
  C 1203.77 261.65 1193.21 268.26 1182.40 260.89
  C 1170.27 252.62 1176.29 228.45 1181.50 217.88
  C 1187.23 206.29 1198.53 196.81 1212.33 199.51
  C 1215.14 200.06 1217.23 201.59 1218.08 204.25
  Z
  M 1271.64 208.40
  Q 1264.48 217.75 1262.38 230.39
  Q 1262.25 231.16 1263.03 231.09
  C 1274.03 230.12 1280.75 218.34 1280.28 208.25
  C 1280.03 202.76 1273.38 206.12 1271.64 208.40
  Z
  M 1203.45 211.94
  Q 1193.13 227.20 1194.39 245.85
  C 1194.99 254.83 1204.96 251.30 1208.35 246.73
  Q 1209.84 244.73 1210.80 240.37
  Q 1213.77 226.93 1216.58 213.46
  C 1218.66 203.48 1206.97 206.73 1203.45 211.94
  Z"
/>
<path fill="#122d46" d="
  M 1075.36 204.55
  A 0.26 0.26 0.0 0 0 1075.86 204.51
  L 1076.60 200.20
  Q 1076.69 199.74 1077.16 199.73
  L 1094.44 199.45
  A 0.51 0.51 0.0 0 1 1094.95 200.07
  Q 1090.20 222.29 1085.55 244.56
  C 1083.83 252.83 1091.88 254.57 1096.47 249.32
  Q 1096.79 248.95 1096.78 248.47
  Q 1096.66 241.17 1101.97 236.82
  Q 1103.81 235.31 1104.61 233.79
  Q 1113.42 217.12 1118.88 198.95
  A 1.14 1.13 -85.5 0 1 1119.81 198.15
  L 1137.52 195.77
  A 0.39 0.38 -5.5 0 1 1137.96 196.13
  Q 1138.86 215.16 1140.35 234.18
  Q 1140.92 241.40 1140.50 246.07
  Q 1140.45 246.58 1140.90 246.33
  C 1145.34 243.82 1148.53 239.44 1153.97 240.36
  Q 1154.58 240.46 1154.16 240.92
  C 1147.81 247.94 1140.43 252.90 1132.81 258.36
  C 1123.08 265.34 1106.42 267.00 1098.94 255.58
  Q 1098.63 255.10 1098.24 255.52
  C 1090.68 263.79 1070.31 269.98 1068.47 252.88
  Q 1068.38 252.07 1067.85 252.69
  C 1062.18 259.33 1057.42 264.48 1047.80 263.73
  Q 1038.22 262.99 1033.91 253.59
  Q 1033.68 253.08 1033.36 253.55
  C 1022.09 270.20 996.17 267.23 1001.78 242.01
  Q 1004.73 228.75 1006.18 221.19
  C 1006.88 217.54 1007.24 210.24 1001.36 210.64
  C 996.38 210.97 992.91 218.76 991.98 223.01
  Q 987.67 242.80 983.54 262.65
  Q 983.41 263.29 982.77 263.28
  L 965.76 263.15
  Q 965.16 263.14 965.29 262.56
  Q 969.84 240.85 974.41 219.18
  C 975.12 215.80 975.24 209.71 969.77 210.65
  C 964.81 211.51 961.47 218.60 960.44 223.49
  Q 956.28 243.12 952.15 262.85
  A 0.51 0.51 0.0 0 1 951.65 263.26
  L 934.63 263.23
  Q 933.76 263.22 933.94 262.38
  L 947.11 200.32
  Q 947.22 199.80 947.75 199.79
  L 964.72 199.54
  Q 965.50 199.53 965.34 200.29
  L 964.23 205.51
  A 0.25 0.25 0.0 0 0 964.66 205.74
  C 972.02 197.96 990.33 194.58 992.32 209.08
  A 0.55 0.54 57.4 0 0 993.32 209.30
  Q 999.79 199.04 1010.95 199.32
  C 1025.20 199.68 1025.61 211.85 1023.28 222.59
  Q 1021.13 232.46 1018.79 242.28
  C 1016.08 253.65 1026.75 253.97 1031.01 246.88
  Q 1032.17 244.96 1032.51 240.80
  C 1033.95 223.68 1044.03 198.61 1064.93 199.08
  C 1069.84 199.19 1073.65 199.70 1075.36 204.55
  Z
  M 1061.44 210.94
  C 1053.99 220.01 1050.89 233.53 1051.44 245.00
  C 1051.61 248.56 1053.39 251.26 1057.00 251.48
  C 1062.09 251.79 1066.51 246.51 1067.69 241.93
  Q 1069.23 235.97 1073.81 213.48
  C 1075.72 204.12 1065.19 206.37 1061.44 210.94
  Z
  M 1119.50 212.79
  Q 1115.79 224.50 1109.88 235.27
  Q 1109.64 235.69 1110.01 236.01
  C 1115.63 240.80 1111.26 247.62 1104.45 246.09
  A 0.51 0.51 0.0 0 0 1103.84 246.54
  C 1102.98 254.99 1113.84 255.07 1118.42 251.41
  C 1122.66 248.02 1122.53 242.70 1122.12 237.57
  Q 1121.11 225.05 1119.93 212.84
  A 0.22 0.22 0.0 0 0 1119.50 212.79
  Z"
/>
<path fill="#737373" d="
  M 682.44 501.56
  C 664.84 487.21 661.37 458.92 661.15 438.07
  Q 660.68 393.30 677.75 351.65
  C 694.11 311.72 727.90 276.37 775.24 283.04
  C 813.52 288.44 823.59 327.47 822.38 360.26
  C 820.84 402.29 810.32 446.84 784.94 480.62
  C 769.56 501.08 749.97 513.30 723.73 513.65
  C 708.23 513.86 694.32 511.25 682.44 501.56
  Z
  M 706.45 454.44
  C 706.76 465.61 709.52 491.35 726.03 491.03
  C 748.26 490.59 762.79 451.01 767.77 434.51
  Q 781.59 388.70 781.21 340.82
  C 781.11 328.29 778.00 292.06 756.06 301.65
  C 741.89 307.84 731.45 329.90 726.18 343.10
  Q 704.82 396.66 706.45 454.44
  Z"
/>
<path fill="#737373" d="
  M 954.96 390.07
  C 943.25 390.60 925.87 392.58 920.41 405.08
  Q 920.22 405.50 920.56 405.81
  C 925.81 410.66 924.57 419.08 920.59 422.46
  C 910.65 430.93 890.26 427.38 888.66 412.19
  C 885.78 384.77 922.43 373.36 943.19 372.37
  Q 954.33 371.84 965.44 372.94
  A 0.73 0.71 17.9 0 0 966.12 372.60
  C 981.07 348.80 998.24 327.03 1019.33 307.84
  C 1030.90 297.31 1045.55 287.75 1060.66 284.83
  C 1070.71 282.89 1084.89 283.04 1094.60 287.70
  Q 1095.09 287.94 1094.98 288.47
  L 1047.69 510.19
  A 0.71 0.71 0.0 0 1 1047.00 510.75
  L 1004.79 510.75
  Q 1004.05 510.75 1004.20 510.03
  L 1027.22 401.25
  Q 1027.31 400.84 1026.93 400.66
  Q 1008.09 391.75 987.28 390.07
  Q 986.80 390.03 986.60 390.47
  Q 966.16 434.62 954.25 481.79
  Q 949.06 502.34 947.56 522.56
  C 946.99 530.27 947.46 537.55 951.23 544.63
  Q 951.54 545.21 950.89 545.21
  C 941.77 545.30 930.86 544.33 923.36 539.72
  C 907.23 529.82 910.28 506.30 913.98 490.49
  C 922.14 455.55 937.36 421.51 955.24 390.53
  Q 955.52 390.04 954.96 390.07
  Z
  M 993.50 377.08
  Q 1011.95 380.43 1029.42 387.21
  Q 1030.07 387.47 1030.22 386.78
  L 1047.46 305.74
  A 0.29 0.28 -9.9 0 0 1047.03 305.44
  C 1022.85 320.30 1005.42 351.88 993.31 376.70
  A 0.27 0.26 -71.8 0 0 993.50 377.08
  Z"
/>
<path fill="#737373" d="
  M 604.71 321.75
  L 576.92 321.75
  Q 576.31 321.75 576.46 321.16
  L 579.80 308.27
  Q 579.95 307.69 580.55 307.68
  C 609.38 307.53 632.57 298.67 656.27 284.52
  A 0.26 0.26 0.0 0 1 656.66 284.80
  L 608.74 510.31
  A 0.55 0.55 0.0 0 1 608.20 510.75
  L 565.91 510.75
  Q 565.04 510.75 565.22 509.90
  L 604.98 322.09
  A 0.28 0.28 0.0 0 0 604.71 321.75
  Z"
/>
<path fill="#737373" d="
  M 1115.10 334.69
  A 0.59 0.58 26.3 0 1 1114.83 333.90
  C 1128.40 307.63 1158.20 299.60 1185.29 308.04
  C 1201.47 313.08 1220.19 320.27 1234.09 307.95
  A 1.02 1.02 0.0 0 1 1235.73 309.05
  C 1234.24 313.38 1231.88 317.24 1228.50 320.59
  C 1212.39 336.54 1190.20 342.48 1168.24 335.24
  C 1150.48 329.38 1133.08 321.28 1116.61 334.80
  Q 1116.14 335.18 1115.59 334.92
  L 1115.10 334.69
  Z"
/>
<path fill="#737373" d="
  M 1240.36 486.92
  A 0.38 0.37 -41.4 0 0 1239.69 486.88
  C 1228.61 505.89 1206.14 516.65 1184.66 511.10
  C 1164.45 505.88 1158.70 485.21 1162.38 466.71
  Q 1168.61 435.42 1172.26 421.00
  C 1174.39 412.64 1177.95 393.63 1170.74 387.96
  C 1162.64 381.61 1152.95 389.08 1148.56 395.81
  Q 1142.77 404.69 1140.51 415.06
  Q 1130.25 462.11 1120.04 510.12
  Q 1119.91 510.75 1119.26 510.75
  L 1077.05 510.75
  A 0.59 0.58 -84.0 0 1 1076.48 510.04
  L 1108.44 359.61
  A 0.46 0.45 -83.6 0 1 1108.88 359.25
  L 1151.48 359.25
  A 0.45 0.44 6.2 0 1 1151.92 359.79
  L 1148.80 374.50
  Q 1148.59 375.48 1149.25 374.73
  Q 1165.22 356.74 1188.18 358.46
  C 1219.27 360.79 1220.42 389.07 1215.35 412.83
  Q 1210.96 433.38 1205.93 453.80
  C 1203.85 462.24 1198.93 481.19 1212.17 482.95
  C 1223.90 484.51 1230.40 477.56 1235.34 468.29
  Q 1236.40 466.31 1236.49 463.82
  C 1237.55 431.89 1248.29 398.92 1271.37 375.99
  C 1285.53 361.92 1302.07 356.08 1322.25 356.85
  C 1346.42 357.77 1356.96 375.53 1357.79 397.68
  Q 1357.93 401.30 1358.29 404.89
  Q 1358.34 405.40 1358.85 405.43
  C 1374.85 406.39 1392.42 397.84 1405.69 389.13
  Q 1406.13 388.84 1406.31 388.34
  L 1417.27 356.42
  A 0.72 0.70 5.2 0 1 1417.85 355.95
  L 1461.50 350.05
  Q 1462.04 349.97 1462.07 350.51
  Q 1464.43 401.39 1468.28 451.51
  Q 1469.03 461.33 1467.78 470.92
  A 0.31 0.31 0.0 0 0 1468.25 471.23
  Q 1479.23 464.94 1489.03 456.92
  Q 1489.53 456.50 1490.19 456.50
  L 1501.21 456.50
  Q 1502.02 456.50 1501.48 457.11
  Q 1482.90 478.15 1458.86 492.44
  Q 1456.28 493.98 1453.50 496.55
  C 1429.08 519.16 1371.39 521.34 1364.43 479.63
  C 1362.30 466.83 1367.24 453.91 1378.25 446.55
  Q 1380.03 445.36 1380.96 443.71
  Q 1391.22 425.44 1399.13 406.06
  Q 1399.46 405.24 1398.71 405.70
  Q 1379.75 417.18 1357.78 420.50
  Q 1357.20 420.59 1357.16 421.17
  C 1353.55 467.91 1324.86 523.25 1267.78 509.78
  Q 1248.17 505.15 1240.36 486.92
  Z
  M 1287.69 482.31
  C 1303.87 491.87 1316.46 471.86 1321.78 459.54
  Q 1329.25 442.24 1332.01 422.43
  Q 1332.11 421.70 1331.41 421.49
  Q 1325.43 419.71 1324.39 413.07
  C 1323.15 405.16 1324.96 396.62 1332.85 392.91
  Q 1333.33 392.69 1333.31 392.15
  C 1333.06 386.57 1332.17 376.35 1324.69 375.35
  C 1299.54 371.97 1285.19 429.13 1282.74 446.24
  C 1281.55 454.54 1279.55 477.51 1287.69 482.31
  Z
  M 1395.02 446.20
  C 1411.16 455.05 1393.81 480.62 1380.38 468.23
  Q 1380.01 467.89 1380.02 468.39
  C 1380.10 476.69 1382.34 485.29 1391.54 487.57
  C 1405.17 490.94 1420.45 485.08 1423.58 470.20
  Q 1425.32 461.97 1424.75 455.25
  Q 1422.02 422.89 1419.12 390.15
  A 0.25 0.25 0.0 0 0 1418.63 390.09
  Q 1409.00 418.68 1394.74 445.26
  A 0.70 0.70 0.0 0 0 1395.02 446.20
  Z"
/>
<circle fill="#122d46" cx="978.76" cy="545.90" r="10.02"/>
<circle fill="#122d46" cx="1174.31" cy="545.90" r="10.02"/>
<path fill="#122d46" d="
  M 577.95 616.28
  A 0.55 0.55 0.0 0 0 576.94 616.06
  C 571.28 625.40 559.68 630.44 549.91 624.58
  C 537.86 617.36 541.91 596.60 546.24 585.69
  C 551.80 571.67 562.91 559.67 579.46 562.97
  Q 583.36 563.75 584.69 567.37
  A 0.31 0.31 0.0 0 0 585.28 567.32
  L 590.93 540.68
  Q 591.07 540.02 591.74 539.93
  L 609.25 537.55
  Q 609.85 537.47 609.73 538.06
  Q 602.36 572.67 595.03 607.25
  C 592.75 617.99 603.72 615.62 607.31 610.16
  Q 608.44 608.44 608.69 604.99
  C 609.67 591.22 614.55 576.29 625.31 567.56
  C 633.90 560.57 658.39 556.75 656.77 575.02
  C 655.45 589.96 642.50 599.11 628.25 600.55
  Q 627.73 600.60 627.66 601.12
  C 626.79 607.48 626.76 615.93 635.32 616.35
  C 645.99 616.88 651.92 610.89 658.74 603.90
  Q 659.13 603.50 659.69 603.50
  L 662.48 603.50
  A 0.48 0.48 0.0 0 1 662.89 604.23
  C 654.94 617.15 643.55 627.38 627.65 626.94
  C 619.39 626.71 613.21 623.88 609.97 616.19
  A 0.46 0.46 0.0 0 0 609.17 616.10
  Q 601.92 626.44 589.84 626.19
  C 583.42 626.06 578.73 622.77 577.95 616.28
  Z
  M 646.84 572.03
  C 646.65 564.55 638.73 570.59 637.09 573.09
  Q 630.84 582.66 628.88 593.98
  Q 628.79 594.49 629.31 594.45
  C 640.34 593.46 647.10 582.22 646.84 572.03
  Z
  M 564.73 614.33
  C 570.92 617.36 576.39 608.68 577.50 603.49
  Q 580.50 589.50 583.50 575.50
  C 584.20 572.19 580.99 569.92 577.84 570.26
  C 565.52 571.61 560.11 597.90 560.67 607.52
  C 560.85 610.58 561.87 612.92 564.73 614.33
  Z"
/>
<path fill="#122d46" d="
  M 1469.52 611.82
  A 0.24 0.24 0.0 0 0 1469.09 611.67
  C 1461.35 621.55 1450.12 628.02 1437.37 626.86
  C 1427.67 625.97 1420.93 620.58 1420.37 610.57
  C 1419.36 592.39 1427.61 567.01 1447.91 562.35
  C 1462.30 559.04 1473.26 567.28 1466.59 582.67
  C 1462.02 593.23 1450.91 599.55 1439.63 600.56
  Q 1439.00 600.61 1439.01 601.25
  C 1439.11 608.15 1437.55 615.87 1447.36 616.38
  C 1456.22 616.85 1463.64 611.47 1469.20 604.80
  Q 1470.66 603.06 1471.17 600.63
  Q 1477.40 571.12 1483.92 540.92
  Q 1484.12 539.99 1485.07 539.87
  L 1502.27 537.57
  Q 1502.86 537.49 1502.73 538.08
  Q 1495.36 572.80 1487.99 607.49
  C 1487.21 611.17 1487.90 614.63 1492.38 614.77
  C 1498.32 614.97 1502.64 609.48 1504.16 604.06
  Q 1504.32 603.51 1504.89 603.51
  L 1508.96 603.49
  Q 1509.63 603.49 1509.43 604.12
  Q 1506.81 612.38 1502.70 617.44
  C 1493.71 628.52 1469.47 633.62 1469.52 611.82
  Z
  M 1456.44 568.58
  C 1447.42 567.23 1441.46 587.72 1440.35 593.98
  Q 1440.26 594.50 1440.78 594.45
  C 1450.38 593.47 1457.33 584.34 1458.44 575.27
  Q 1458.91 571.47 1457.38 569.19
  Q 1457.04 568.68 1456.44 568.58
  Z"
/>
<path fill="#122d46" d="
  M 828.14 567.26
  C 839.84 558.03 856.43 561.00 857.56 578.20
  C 858.89 598.30 851.58 627.40 825.99 626.98
  Q 819.98 626.89 816.19 623.32
  Q 815.73 622.88 815.60 623.50
  L 809.34 653.02
  Q 809.23 653.56 808.69 653.69
  L 790.50 657.93
  A 0.32 0.31 -0.6 0 1 790.12 657.56
  L 798.11 620.16
  Q 798.32 619.20 797.60 619.87
  Q 790.96 626.06 782.21 626.92
  C 770.93 628.02 766.71 613.99 765.76 605.59
  A 0.34 0.34 0.0 0 0 765.16 605.41
  L 748.49 625.78
  Q 748.17 626.18 747.65 626.19
  L 739.75 626.38
  A 0.41 0.41 0.0 0 1 739.44 625.70
  L 764.13 597.82
  Q 764.47 597.43 764.41 596.91
  C 763.64 590.68 763.03 579.32 759.95 574.06
  C 757.44 569.76 751.57 576.22 750.15 578.52
  Q 743.33 589.62 741.06 602.59
  Q 740.97 603.11 740.50 603.36
  L 739.81 603.73
  Q 739.31 604.00 739.01 604.50
  C 731.85 616.48 720.73 626.40 706.25 626.96
  C 693.92 627.43 685.12 621.61 685.01 608.49
  C 684.86 591.91 692.24 568.97 709.92 563.15
  C 715.40 561.35 724.54 560.72 729.33 564.57
  C 734.46 568.69 733.59 577.68 731.12 583.04
  C 726.25 593.62 715.83 599.32 704.54 600.65
  Q 704.03 600.71 703.95 601.22
  C 703.38 604.81 703.33 611.88 706.33 614.50
  C 710.21 617.87 719.19 616.16 722.75 614.27
  C 726.07 612.51 734.88 605.90 735.90 601.16
  C 738.27 590.16 744.38 572.80 753.47 566.06
  C 759.16 561.84 769.37 560.12 774.81 566.19
  C 778.90 570.74 779.37 580.14 780.08 586.21
  A 0.31 0.31 0.0 0 0 780.62 586.38
  C 784.82 581.73 790.13 575.45 791.04 569.24
  Q 791.13 568.60 790.49 568.72
  C 781.37 570.45 779.53 555.92 791.03 555.77
  C 798.91 555.66 799.57 566.98 798.01 572.02
  C 795.56 579.98 787.20 588.37 781.50 594.44
  Q 781.14 594.82 781.21 595.35
  C 781.79 599.96 781.68 615.29 790.66 614.66
  C 797.53 614.18 800.82 607.03 802.07 601.20
  Q 806.62 579.91 811.13 558.62
  Q 811.25 558.04 811.84 558.04
  L 828.97 557.99
  A 0.51 0.51 0.0 0 1 829.47 558.61
  L 827.58 566.91
  Q 827.36 567.86 828.14 567.26
  Z
  M 705.79 594.47
  C 716.18 593.10 723.16 583.15 723.26 573.00
  C 723.29 570.46 722.42 568.04 719.34 568.59
  C 711.61 569.96 706.52 587.09 705.16 593.80
  A 0.57 0.56 2.1 0 0 705.79 594.47
  Z
  M 819.20 615.05
  C 836.67 622.27 840.81 587.86 840.14 578.51
  C 839.52 569.93 831.95 569.60 827.20 574.98
  Q 825.54 576.86 824.67 580.90
  Q 821.23 596.84 817.95 612.69
  A 2.10 2.09 -73.0 0 0 819.20 615.05
  Z"
/>
<path fill="#122d46" d="
  M 907.71 613.32
  A 0.36 0.35 70.6 0 0 907.09 613.02
  Q 897.27 625.25 881.96 626.96
  C 868.99 628.42 859.54 621.47 859.46 607.86
  C 859.34 587.61 870.73 560.33 894.97 561.85
  C 903.01 562.35 908.15 566.24 907.56 574.77
  C 906.51 589.90 892.87 599.34 878.77 600.61
  A 0.39 0.39 0.0 0 0 878.42 600.95
  C 877.78 605.72 877.50 615.23 884.08 616.12
  C 895.50 617.66 902.37 611.55 909.46 603.85
  Q 909.80 603.48 909.90 602.99
  L 918.33 563.35
  A 0.61 0.61 0.0 0 1 918.91 562.87
  L 935.46 562.70
  Q 936.77 562.68 936.49 563.96
  L 935.17 569.99
  A 0.36 0.36 0.0 0 0 935.77 570.32
  C 959.08 547.75 967.45 583.61 948.49 581.48
  C 945.40 581.13 944.88 576.43 944.07 574.02
  Q 943.90 573.52 943.38 573.40
  C 939.78 572.58 933.50 576.54 932.81 579.96
  Q 928.30 602.24 923.51 625.25
  Q 923.31 626.25 922.29 626.25
  L 905.59 626.25
  Q 904.99 626.25 905.11 625.66
  L 907.71 613.32
  Z
  M 897.80 571.77
  C 897.70 567.39 892.00 568.19 890.28 570.10
  Q 881.92 579.35 879.82 594.09
  Q 879.76 594.51 880.19 594.46
  C 891.22 593.10 898.03 582.15 897.80 571.77
  Z"
/>
<path fill="#122d46" d="
  M 991.11 616.09
  A 0.20 0.20 0.0 0 0 990.76 616.05
  C 978.98 631.69 951.65 632.73 957.34 604.87
  Q 961.56 584.21 966.06 563.61
  Q 966.17 563.09 966.71 563.08
  L 983.56 562.79
  A 0.74 0.73 5.9 0 1 984.29 563.68
  Q 979.47 585.57 975.17 607.21
  C 972.86 618.81 984.95 615.14 988.56 609.68
  Q 989.69 607.97 989.87 604.99
  C 990.75 590.28 996.94 572.17 1010.89 564.77
  C 1017.01 561.52 1030.87 559.42 1035.79 566.25
  C 1039.06 570.77 1038.15 579.57 1035.72 583.99
  Q 1027.60 598.77 1009.43 600.45
  Q 1008.88 600.51 1008.82 601.06
  C 1008.15 607.10 1007.66 615.51 1016.12 616.29
  C 1025.60 617.17 1032.89 611.71 1038.84 604.92
  Q 1040.24 603.32 1040.72 601.06
  Q 1044.68 582.37 1048.71 563.58
  A 0.73 0.72 -84.1 0 1 1049.42 563.00
  L 1066.58 562.95
  A 0.46 0.46 0.0 0 1 1067.03 563.53
  L 1065.72 568.76
  A 0.31 0.31 0.0 0 0 1066.25 569.05
  Q 1074.36 560.17 1086.23 563.30
  C 1101.62 567.36 1091.04 596.45 1088.79 606.56
  C 1085.93 619.45 1102.08 616.02 1102.76 604.39
  C 1103.89 585.01 1115.33 560.61 1138.05 561.82
  Q 1144.42 562.16 1147.75 565.19
  C 1153.26 570.20 1152.03 585.72 1140.49 581.78
  A 0.95 0.94 20.1 0 1 1139.91 580.54
  C 1140.97 577.82 1143.15 567.84 1137.28 568.53
  C 1126.59 569.79 1115.99 609.80 1124.88 615.18
  Q 1126.27 616.02 1128.78 616.26
  C 1138.64 617.19 1145.51 611.79 1151.71 604.90
  Q 1153.16 603.29 1153.64 601.00
  Q 1157.57 582.15 1161.64 563.34
  Q 1161.77 562.78 1162.34 562.78
  L 1179.52 562.82
  A 0.39 0.38 -83.9 0 1 1179.89 563.29
  Q 1175.22 585.28 1170.59 607.32
  C 1167.91 620.09 1185.05 614.77 1185.40 605.22
  C 1186.12 585.92 1198.58 558.94 1221.99 562.51
  Q 1226.56 563.20 1228.35 567.94
  Q 1229.29 570.45 1229.03 567.74
  Q 1228.83 565.65 1229.52 563.61
  A 1.30 1.29 -80.4 0 1 1230.76 562.72
  L 1247.24 562.83
  A 0.58 0.58 0.0 0 1 1247.81 563.54
  Q 1242.96 585.78 1238.57 607.52
  C 1237.89 610.87 1238.29 614.37 1241.89 615.31
  C 1248.51 617.02 1252.00 608.85 1253.56 604.13
  Q 1253.77 603.50 1254.44 603.50
  L 1258.30 603.50
  Q 1258.99 603.50 1258.78 604.15
  C 1255.28 615.06 1248.80 624.65 1237.02 626.62
  C 1228.82 628.00 1222.48 624.99 1221.40 616.22
  A 0.56 0.56 0.0 0 0 1220.37 616.00
  C 1212.74 628.62 1192.66 632.81 1186.69 616.08
  A 0.27 0.27 0.0 0 0 1186.22 616.01
  C 1177.54 628.20 1153.70 634.63 1152.04 612.21
  Q 1151.99 611.48 1151.47 611.99
  Q 1150.01 613.43 1148.69 614.90
  Q 1137.63 627.19 1121.76 626.92
  C 1113.69 626.78 1107.51 624.01 1104.22 616.60
  A 0.30 0.30 0.0 0 0 1103.70 616.56
  C 1092.58 633.50 1066.36 630.67 1072.03 605.05
  Q 1074.30 594.78 1076.38 584.46
  C 1077.06 581.08 1077.56 573.96 1072.26 573.94
  C 1066.29 573.92 1063.11 582.09 1062.09 586.82
  Q 1057.87 606.30 1053.74 625.80
  Q 1053.65 626.25 1053.19 626.25
  L 1036.07 626.25
  Q 1035.37 626.25 1035.51 625.57
  L 1038.08 613.50
  Q 1038.42 611.94 1037.39 613.17
  C 1029.40 622.73 1019.37 627.65 1006.73 626.90
  Q 995.39 626.23 991.11 616.09
  Z
  M 1025.49 568.45
  C 1016.67 569.04 1011.54 586.17 1010.02 593.84
  A 0.49 0.49 0.0 0 0 1010.54 594.42
  C 1021.94 593.36 1028.91 581.34 1028.11 570.73
  A 2.48 2.46 85.9 0 0 1025.49 568.45
  Z
  M 1206.19 613.06
  C 1210.72 617.22 1216.68 612.94 1219.14 608.59
  Q 1220.25 606.62 1221.24 602.19
  Q 1224.05 589.58 1226.63 576.92
  C 1227.24 573.93 1226.71 571.00 1223.49 570.28
  C 1209.41 567.17 1199.40 606.84 1206.19 613.06
  Z"
/>
<path fill="#122d46" d="
  M 1327.81 614.16
  Q 1328.25 612.08 1326.87 613.69
  Q 1314.90 627.66 1297.58 626.85
  C 1284.51 626.25 1279.09 617.61 1279.75 605.25
  C 1280.80 585.52 1292.04 559.69 1316.06 561.89
  C 1324.60 562.67 1328.93 567.58 1327.67 576.26
  C 1325.59 590.65 1313.04 599.20 1299.41 600.59
  Q 1298.92 600.63 1298.83 601.12
  C 1297.89 606.34 1297.89 614.70 1304.32 616.15
  C 1313.97 618.33 1322.80 611.60 1328.76 604.86
  Q 1330.15 603.28 1330.62 601.03
  Q 1334.57 582.25 1338.61 563.48
  Q 1338.71 563.00 1339.20 562.99
  L 1355.73 562.69
  Q 1357.07 562.67 1356.77 563.98
  L 1355.74 568.48
  Q 1355.44 569.76 1356.34 568.80
  Q 1362.77 561.97 1371.65 562.53
  C 1382.95 563.23 1385.63 571.72 1384.22 581.69
  Q 1383.49 586.80 1379.02 604.78
  C 1378.62 606.40 1378.56 608.10 1378.55 609.72
  C 1378.48 616.84 1386.57 615.39 1389.80 611.82
  Q 1391.84 609.55 1393.90 604.03
  Q 1394.09 603.51 1394.64 603.51
  L 1398.78 603.49
  Q 1399.39 603.49 1399.22 604.08
  C 1396.24 614.24 1390.10 624.83 1379.30 626.70
  C 1365.51 629.10 1358.79 619.70 1361.62 606.53
  Q 1363.95 595.69 1366.22 584.82
  C 1366.91 581.49 1367.35 574.82 1362.91 573.97
  C 1357.69 572.96 1353.37 580.70 1352.45 584.75
  Q 1349.12 599.37 1343.72 625.66
  Q 1343.60 626.25 1342.99 626.25
  L 1326.17 626.25
  A 0.76 0.76 0.0 0 1 1325.43 625.34
  L 1327.81 614.16
  Z
  M 1314.91 568.58
  C 1306.64 568.51 1301.06 587.82 1299.89 593.98
  Q 1299.79 594.50 1300.32 594.45
  C 1311.60 593.45 1318.36 581.86 1318.06 571.53
  C 1318.02 570.01 1316.57 568.59 1314.91 568.58
  Z"
/>
<path fill="#737373" d="
  M 731.98 724.76
  A 0.55 0.55 0.0 0 0 732.14 725.79
  C 750.97 729.23 759.90 746.82 759.27 764.50
  C 758.19 795.02 741.74 835.40 704.32 832.09
  C 685.48 830.42 678.97 819.02 686.65 801.59
  Q 686.88 801.07 687.29 801.47
  C 689.86 803.94 692.48 806.64 695.73 807.90
  C 707.37 812.41 716.20 806.05 720.66 795.22
  Q 729.03 774.91 724.88 753.85
  C 721.56 737.02 707.86 735.04 693.23 737.08
  Q 692.65 737.16 692.53 737.73
  L 673.23 827.81
  A 0.55 0.55 0.0 0 1 672.69 828.25
  L 639.37 828.25
  A 0.36 0.36 0.0 0 1 639.02 827.81
  L 671.17 677.43
  A 0.76 0.75 2.2 0 1 671.81 676.84
  L 705.95 672.23
  A 0.38 0.38 0.0 0 1 706.38 672.69
  L 695.40 724.32
  Q 695.29 724.81 695.79 724.82
  C 729.38 725.51 750.30 664.70 704.23 660.99
  C 670.87 658.30 640.13 681.95 640.21 716.59
  C 640.22 723.90 640.11 728.34 643.27 733.95
  A 0.48 0.48 0.0 0 1 642.86 734.67
  C 610.45 735.04 614.33 702.84 627.61 685.36
  C 648.35 658.03 686.36 646.03 719.25 650.99
  Q 728.71 652.42 738.38 658.40
  C 765.42 675.12 756.51 711.44 731.98 724.76
  Z"
/>
<path fill="#737373" d="
  M 845.32 720.26
  L 847.40 709.94
  Q 847.53 709.25 848.24 709.25
  L 881.42 709.25
  A 0.36 0.35 -84.0 0 1 881.76 709.68
  Q 872.87 751.50 864.07 793.31
  C 860.65 809.61 877.15 812.40 884.99 801.77
  Q 885.28 801.38 885.26 800.89
  Q 884.67 786.19 896.19 778.04
  Q 897.97 776.78 898.87 775.12
  C 910.64 753.26 919.08 730.77 926.88 707.26
  Q 927.08 706.65 927.71 706.57
  L 961.70 701.97
  Q 962.19 701.90 962.21 702.39
  Q 964.19 741.61 967.23 780.66
  C 967.69 786.53 967.54 791.53 966.74 796.94
  A 0.38 0.38 0.0 0 0 967.32 797.31
  L 980.14 788.88
  Q 980.64 788.55 980.68 787.95
  C 983.19 750.31 1004.18 702.98 1049.63 707.54
  C 1061.69 708.76 1069.61 714.02 1070.68 726.51
  C 1073.28 756.99 1044.49 778.00 1016.89 780.07
  Q 1016.36 780.11 1016.29 780.65
  C 1015.07 791.23 1013.85 807.59 1028.80 809.33
  C 1049.05 811.69 1060.93 800.53 1073.87 786.88
  Q 1075.11 785.57 1075.29 784.76
  Q 1087.80 725.85 1100.39 666.96
  A 0.79 0.78 -87.3 0 1 1101.05 666.35
  L 1135.04 661.76
  Q 1135.69 661.67 1135.55 662.31
  L 1124.42 714.55
  Q 1124.28 715.20 1124.86 714.88
  C 1132.65 710.62 1138.77 707.77 1147.57 708.78
  C 1181.05 712.62 1172.41 766.29 1165.03 786.15
  C 1154.59 814.27 1131.31 832.86 1100.04 829.05
  Q 1074.66 825.97 1073.40 800.61
  A 0.29 0.29 0.0 0 0 1072.88 800.45
  C 1059.17 817.52 1041.30 829.24 1018.97 829.56
  C 998.68 829.86 983.19 821.26 981.10 799.03
  A 0.32 0.32 0.0 0 0 980.57 798.82
  C 972.14 806.04 962.87 811.24 954.41 818.09
  Q 943.88 826.61 930.71 828.71
  C 913.65 831.44 898.87 828.75 888.69 813.64
  Q 888.51 813.38 888.30 813.61
  Q 876.30 827.16 859.13 829.24
  C 844.36 831.03 833.42 824.05 831.93 808.48
  A 0.40 0.40 0.0 0 0 831.21 808.28
  C 819.67 824.27 802.30 835.79 782.27 826.56
  C 765.85 818.99 763.44 800.02 764.98 783.50
  C 768.14 749.73 789.78 703.37 831.37 708.65
  Q 837.34 709.41 840.23 711.46
  Q 844.38 714.42 845.02 720.25
  Q 845.13 721.23 845.32 720.26
  Z
  M 1049.31 720.44
  C 1032.88 713.61 1020.04 758.72 1018.31 768.20
  Q 1018.21 768.79 1018.80 768.73
  C 1034.94 766.96 1047.56 753.46 1051.53 738.31
  C 1052.53 734.47 1054.15 722.45 1049.31 720.44
  Z
  M 800.52 797.00
  C 801.81 806.94 812.69 808.80 819.83 803.79
  Q 828.54 797.68 830.87 787.21
  Q 836.77 760.73 842.31 734.16
  C 844.66 722.92 832.74 720.70 825.23 725.02
  Q 820.57 727.70 817.93 731.19
  C 804.69 748.65 797.83 776.41 800.52 797.00
  Z
  M 1115.34 805.88
  C 1144.18 814.23 1160.24 725.46 1135.27 725.48
  Q 1128.22 725.49 1122.35 728.57
  A 2.31 2.31 0.0 0 0 1121.18 730.11
  Q 1114.31 761.20 1107.73 792.23
  C 1106.29 799.03 1108.50 803.90 1115.34 805.88
  Z
  M 909.38 777.39
  C 920.95 783.85 911.42 802.11 899.32 796.08
  Q 898.76 795.80 898.51 796.37
  Q 898.04 797.48 898.26 799.23
  C 899.83 811.59 911.79 812.75 921.15 809.12
  C 930.78 805.39 933.83 795.64 933.04 786.00
  Q 930.86 759.64 928.57 733.49
  A 0.22 0.22 0.0 0 0 928.14 733.44
  Q 920.46 755.96 909.26 776.98
  A 0.30 0.30 0.0 0 0 909.38 777.39
  Z"
/>
<path fill="#737373" d="
  M 1258.59 719.81
  L 1260.46 709.83
  Q 1260.57 709.25 1261.16 709.25
  L 1294.26 709.25
  Q 1294.92 709.25 1294.78 709.89
  Q 1286.02 751.06 1277.47 791.71
  C 1276.16 797.91 1276.43 806.35 1283.51 807.75
  C 1297.44 810.51 1304.28 792.85 1306.60 782.07
  Q 1318.94 724.49 1331.19 666.84
  A 0.61 0.60 2.0 0 1 1331.70 666.37
  L 1366.01 661.72
  A 0.36 0.36 0.0 0 1 1366.41 662.15
  Q 1353.40 723.14 1340.32 784.16
  C 1339.17 789.54 1334.73 803.81 1343.67 806.05
  C 1357.17 809.44 1367.44 795.46 1369.91 783.78
  Q 1382.27 725.36 1394.69 666.93
  Q 1394.79 666.43 1395.31 666.36
  L 1429.50 661.72
  A 0.35 0.35 0.0 0 1 1429.88 662.14
  Q 1415.97 727.56 1402.31 793.11
  C 1401.32 797.87 1401.02 804.47 1406.85 805.96
  C 1419.78 809.25 1429.63 797.48 1432.69 786.21
  Q 1432.81 785.75 1433.28 785.75
  L 1442.06 785.75
  Q 1442.73 785.75 1442.52 786.39
  C 1435.75 806.74 1424.09 823.67 1402.46 828.41
  C 1386.00 832.02 1372.00 827.15 1368.16 809.37
  A 0.20 0.19 57.4 0 0 1367.81 809.29
  C 1357.87 823.44 1335.26 834.65 1318.31 827.48
  Q 1307.52 822.93 1304.81 809.96
  A 0.32 0.32 0.0 0 0 1304.23 809.84
  Q 1295.87 821.72 1282.35 826.92
  C 1266.12 833.15 1246.87 829.25 1245.02 808.80
  A 0.57 0.56 59.9 0 0 1243.99 808.52
  C 1237.97 817.30 1229.07 825.65 1218.87 828.37
  C 1200.82 833.19 1183.36 824.36 1179.15 805.56
  C 1170.48 766.88 1198.45 698.97 1248.49 709.23
  Q 1256.63 710.90 1258.10 719.81
  Q 1258.33 721.18 1258.59 719.81
  Z
  M 1217.42 804.08
  C 1228.59 812.25 1241.33 798.60 1243.76 788.49
  Q 1246.41 777.45 1255.21 734.93
  C 1256.73 727.59 1252.89 722.41 1245.11 722.90
  C 1224.64 724.19 1214.45 765.78 1212.98 781.68
  C 1212.43 787.63 1212.01 800.12 1217.42 804.08
  Z"
/>
</svg>
