<?xml version="1.0" encoding="UTF-8" standalone="no"?>
<!DOCTYPE svg PUBLIC "-//W3C//DTD SVG 1.1//EN" "http://www.w3.org/Graphics/SVG/1.1/DTD/svg11.dtd">
<svg xmlns="http://www.w3.org/2000/svg" version="1.1" viewBox="0.00 0.00 2048.00 1024.00">
<path fill="#122d46" d="
  M 1077.12 167.75
  L 1089.31 167.75
  A 0.47 0.47 0.0 0 1 1089.71 168.47
  L 1074.99 191.45
  A 0.47 0.47 0.0 0 1 1074.61 191.67
  L 1065.94 191.94
  A 0.47 0.47 0.0 0 1 1065.51 191.26
  L 1076.69 168.02
  A 0.47 0.47 0.0 0 1 1077.12 167.75
  Z"
/>
<path fill="#122d46" d="
  M 872.48 205.51
  A 0.29 0.29 0.0 0 0 872.98 205.78
  Q 879.17 199.05 887.63 199.26
  C 902.25 199.61 902.71 212.19 900.18 223.18
  Q 897.95 232.84 895.81 242.51
  C 895.04 246.03 894.73 251.17 899.66 251.46
  C 906.17 251.85 908.77 245.79 910.88 240.78
  Q 911.09 240.27 911.65 240.26
  L 915.54 240.24
  Q 916.25 240.24 916.06 240.92
  C 913.78 249.21 908.76 258.28 900.91 261.91
  C 887.29 268.20 875.32 259.70 878.35 244.52
  Q 880.73 232.62 883.27 220.76
  C 883.99 217.36 884.06 210.29 878.43 210.71
  C 872.91 211.13 869.82 219.08 868.81 223.67
  Q 864.59 242.94 860.60 262.33
  A 1.15 1.15 0.0 0 1 859.47 263.25
  L 842.92 263.25
  A 0.69 0.69 0.0 0 1 842.25 262.41
  L 850.62 222.98
  A 0.23 0.23 0.0 0 0 850.34 222.71
  L 840.64 225.42
  Q 839.91 225.62 839.85 226.38
  C 838.74 240.17 832.24 256.00 819.22 261.72
  C 808.64 266.37 793.05 263.00 790.12 250.16
  A 0.41 0.40 56.6 0 0 789.40 250.01
  C 780.13 262.80 762.96 266.96 748.12 263.72
  C 735.80 261.03 731.42 250.87 730.72 239.25
  C 729.07 211.97 742.00 164.90 777.82 168.11
  C 790.63 169.26 798.32 176.25 795.30 189.83
  C 793.62 197.34 785.48 198.48 780.30 193.74
  Q 779.88 193.36 780.31 192.99
  Q 786.03 188.01 785.73 181.27
  C 785.38 173.13 777.07 172.34 771.54 176.04
  C 767.66 178.64 763.94 184.52 761.67 189.26
  Q 750.98 211.62 751.78 236.76
  C 752.54 260.67 778.41 254.19 789.05 243.20
  Q 789.39 242.85 789.42 242.35
  C 790.31 227.32 796.94 208.46 811.52 201.24
  C 817.73 198.16 828.92 196.80 834.76 201.91
  C 839.11 205.71 840.58 212.79 840.38 218.38
  Q 840.35 219.06 841.03 219.05
  Q 846.51 219.02 851.52 216.79
  Q 851.99 216.57 852.10 216.07
  L 855.45 200.19
  Q 855.53 199.78 855.94 199.78
  L 873.29 199.47
  Q 873.90 199.46 873.76 200.05
  L 872.48 205.51
  Z
  M 828.04 206.79
  C 813.61 201.70 802.54 247.57 811.92 251.70
  C 822.48 256.36 828.50 233.06 829.43 226.47
  Q 829.50 225.94 829.02 225.70
  C 824.06 223.23 825.95 216.00 829.80 213.56
  Q 830.27 213.26 830.13 212.71
  L 828.75 207.57
  Q 828.60 206.99 828.04 206.79
  Z"
/>
<path fill="#122d46" d="
  M 1218.14 204.25
  A 0.27 0.27 0.0 0 0 1218.66 204.22
  L 1224.28 177.34
  Q 1224.40 176.78 1224.96 176.70
  L 1242.76 174.31
  A 0.33 0.33 0.0 0 1 1243.13 174.70
  Q 1235.67 209.46 1228.42 244.18
  Q 1227.82 247.08 1228.70 249.80
  Q 1228.86 250.30 1229.33 250.55
  C 1235.72 253.94 1241.70 248.16 1242.05 241.87
  C 1242.92 226.17 1250.24 205.55 1266.80 199.95
  C 1281.53 194.97 1295.90 202.03 1288.25 219.76
  C 1283.83 230.00 1272.63 236.23 1261.76 237.31
  Q 1261.27 237.36 1261.17 237.84
  C 1260.15 242.57 1260.17 252.08 1266.79 252.93
  C 1277.10 254.26 1284.14 249.25 1290.79 241.96
  C 1292.43 240.17 1293.65 239.80 1295.93 240.33
  Q 1296.44 240.44 1296.18 240.90
  Q 1290.29 251.30 1281.50 257.50
  C 1270.52 265.26 1250.08 268.33 1243.26 252.82
  A 0.36 0.36 0.0 0 0 1242.63 252.76
  C 1235.62 263.00 1215.14 269.88 1211.06 252.94
  Q 1210.89 252.23 1210.46 252.81
  C 1203.82 261.67 1193.18 268.24 1182.42 260.90
  C 1170.26 252.60 1176.28 228.47 1181.51 217.88
  C 1187.23 206.29 1198.52 196.81 1212.33 199.51
  C 1215.14 200.06 1217.24 201.63 1218.14 204.25
  Z
  M 1271.64 208.40
  Q 1264.48 217.75 1262.38 230.39
  Q 1262.25 231.16 1263.03 231.09
  C 1274.03 230.12 1280.75 218.34 1280.28 208.25
  C 1280.03 202.76 1273.38 206.12 1271.64 208.40
  Z
  M 1203.45 211.94
  Q 1193.12 227.20 1194.39 245.85
  C 1195.00 254.84 1204.96 251.30 1208.35 246.73
  Q 1209.83 244.72 1210.79 240.38
  Q 1213.77 226.94 1216.58 213.46
  C 1218.66 203.48 1206.97 206.73 1203.45 211.94
  Z"
/>
<path fill="#122d46" d="
  M 1075.36 204.55
  A 0.26 0.26 0.0 0 0 1075.86 204.51
  L 1076.60 200.20
  Q 1076.69 199.74 1077.16 199.73
  L 1094.45 199.45
  A 0.52 0.50 -84.5 0 1 1094.95 200.07
  Q 1090.20 222.29 1085.55 244.56
  C 1083.83 252.79 1091.90 254.60 1096.45 249.33
  Q 1096.77 248.96 1096.77 248.48
  Q 1096.70 241.05 1102.14 236.64
  Q 1103.90 235.21 1104.68 233.72
  Q 1113.47 216.92 1118.95 198.78
  A 0.86 0.85 -85.2 0 1 1119.66 198.17
  L 1137.52 195.78
  A 0.38 0.38 0.0 0 1 1137.95 196.14
  Q 1138.87 215.16 1140.35 234.18
  Q 1140.91 241.43 1140.50 246.07
  Q 1140.46 246.57 1140.89 246.33
  C 1145.38 243.83 1148.49 239.44 1153.97 240.36
  Q 1154.58 240.46 1154.17 240.91
  C 1147.81 247.94 1140.43 252.90 1132.81 258.36
  C 1123.06 265.35 1106.46 266.99 1098.95 255.57
  Q 1098.63 255.09 1098.25 255.52
  C 1090.68 263.79 1070.31 269.98 1068.47 252.88
  Q 1068.38 252.08 1067.86 252.69
  C 1062.21 259.31 1057.44 264.46 1047.85 263.73
  Q 1038.24 263.01 1033.91 253.59
  Q 1033.68 253.09 1033.37 253.55
  Q 1025.16 265.64 1011.24 263.30
  C 1003.46 262.00 999.89 254.02 1001.02 246.75
  Q 1002.39 237.93 1006.29 221.00
  C 1006.80 218.79 1006.73 214.11 1005.22 212.22
  C 1003.40 209.93 1000.03 210.34 997.95 212.25
  Q 993.42 216.41 991.98 223.01
  Q 987.67 242.80 983.54 262.65
  Q 983.41 263.29 982.77 263.28
  L 965.76 263.15
  Q 965.15 263.14 965.28 262.55
  Q 970.00 240.13 974.72 217.75
  C 975.12 215.82 974.76 212.55 972.90 211.27
  C 966.91 207.12 961.34 218.99 960.39 223.49
  Q 956.28 243.11 952.16 262.84
  A 0.52 0.52 0.0 0 1 951.65 263.26
  L 934.63 263.23
  Q 933.76 263.22 933.94 262.38
  L 947.09 200.41
  Q 947.22 199.79 947.86 199.78
  L 964.94 199.56
  Q 965.51 199.56 965.39 200.11
  L 964.22 205.50
  A 0.27 0.27 0.0 0 0 964.68 205.74
  C 972.02 197.95 990.33 194.59 992.32 209.08
  A 0.55 0.54 57.4 0 0 993.32 209.30
  Q 999.79 199.04 1010.95 199.32
  C 1025.21 199.68 1025.61 211.85 1023.28 222.59
  Q 1021.13 232.46 1018.79 242.28
  C 1016.05 253.75 1026.88 253.93 1031.08 246.75
  Q 1032.20 244.84 1032.55 240.56
  C 1033.96 223.36 1044.29 198.40 1065.23 199.08
  C 1070.02 199.23 1073.75 199.81 1075.36 204.55
  Z
  M 1061.44 210.94
  C 1053.99 220.01 1050.89 233.53 1051.44 245.00
  C 1051.61 248.56 1053.39 251.26 1057.00 251.48
  C 1062.09 251.79 1066.51 246.51 1067.69 241.93
  Q 1069.30 235.67 1073.81 213.47
  C 1075.71 204.12 1065.19 206.37 1061.44 210.94
  Z
  M 1119.50 212.79
  Q 1115.79 224.50 1109.88 235.27
  Q 1109.64 235.69 1110.01 236.01
  C 1115.64 240.81 1111.25 247.61 1104.43 246.09
  A 0.49 0.49 0.0 0 0 1103.84 246.52
  C 1103.05 255.04 1113.82 255.09 1118.46 251.39
  C 1122.66 248.03 1122.53 242.65 1122.12 237.57
  Q 1121.11 225.05 1119.93 212.84
  A 0.22 0.22 0.0 0 0 1119.50 212.79
  Z"
/>
<path fill="#737373" d="
  M 682.44 501.56
  C 664.86 487.22 661.35 458.91 661.14 438.07
  C 660.75 397.90 670.84 354.19 694.69 321.19
  C 713.84 294.69 741.53 278.37 775.23 283.02
  C 814.15 288.40 823.36 328.09 822.22 360.75
  C 820.75 402.71 810.30 446.90 784.94 480.63
  C 769.55 501.09 749.98 513.30 723.73 513.64
  C 708.22 513.85 694.33 511.26 682.44 501.56
  Z
  M 706.45 454.44
  C 706.75 465.02 709.28 488.88 723.51 490.79
  C 752.94 494.74 769.67 430.13 774.02 410.26
  Q 781.54 375.95 781.28 340.69
  C 781.19 328.43 778.08 295.72 759.20 300.62
  C 743.23 304.76 731.81 329.12 726.22 343.12
  Q 704.82 396.66 706.45 454.44
  Z"
/>
<path fill="#737373" d="
  M 954.98 390.10
  C 942.70 390.51 926.36 392.66 920.31 405.03
  Q 920.04 405.59 920.58 405.91
  L 921.08 406.21
  Q 921.48 406.45 921.70 406.87
  C 933.87 430.25 891.02 434.64 888.66 412.19
  C 885.78 384.77 922.42 373.36 943.19 372.37
  Q 954.33 371.84 965.44 372.94
  A 0.74 0.74 0.0 0 0 966.13 372.60
  C 981.47 348.14 999.59 325.20 1021.30 306.06
  C 1032.30 296.36 1046.50 287.56 1060.66 284.83
  C 1070.73 282.88 1084.87 283.05 1094.60 287.70
  Q 1095.09 287.94 1094.98 288.47
  L 1047.69 510.19
  A 0.71 0.71 0.0 0 1 1047.00 510.75
  L 1004.79 510.75
  Q 1004.05 510.75 1004.20 510.03
  L 1027.22 401.25
  Q 1027.31 400.84 1026.93 400.66
  Q 1008.09 391.75 987.27 390.08
  Q 986.79 390.04 986.59 390.47
  Q 966.07 434.83 954.15 482.22
  Q 949.05 502.54 947.56 522.56
  C 946.99 530.28 947.46 537.56 951.23 544.63
  Q 951.54 545.21 950.89 545.21
  C 931.91 545.42 912.91 540.89 911.39 518.33
  C 910.30 502.26 914.53 485.04 919.60 469.82
  Q 933.38 428.38 955.25 390.56
  Q 955.52 390.09 954.98 390.10
  Z
  M 993.50 377.08
  Q 1011.95 380.43 1029.42 387.21
  Q 1030.07 387.47 1030.22 386.78
  L 1047.46 305.74
  A 0.29 0.28 -9.9 0 0 1047.03 305.44
  C 1022.85 320.30 1005.42 351.88 993.31 376.70
  A 0.27 0.26 -71.8 0 0 993.50 377.08
  Z"
/>
<path fill="#737373" d="
  M 604.62 321.75
  L 576.92 321.75
  Q 576.31 321.75 576.46 321.16
  L 579.80 308.27
  Q 579.95 307.69 580.55 307.68
  C 609.38 307.53 632.57 298.67 656.27 284.52
  A 0.26 0.26 0.0 0 1 656.66 284.80
  L 608.77 510.19
  A 0.72 0.71 6.0 0 1 608.07 510.75
  L 565.79 510.75
  Q 565.04 510.75 565.20 510.02
  L 604.96 322.18
  A 0.36 0.35 -84.0 0 0 604.62 321.75
  Z"
/>
<path fill="#737373" d="
  M 1115.25 334.75
  Q 1115.09 334.75 1114.92 334.76
  A 0.34 0.34 0.0 0 1 1114.59 334.26
  C 1126.51 311.27 1151.68 301.00 1176.51 305.77
  C 1194.09 309.15 1217.04 322.88 1234.08 307.96
  A 1.02 1.02 0.0 0 1 1235.72 309.06
  C 1234.24 313.38 1231.88 317.23 1228.51 320.58
  C 1212.39 336.54 1190.21 342.48 1168.24 335.24
  C 1150.52 329.40 1133.12 321.30 1116.66 334.75
  Q 1116.41 334.96 1116.09 335.00
  Q 1115.79 335.03 1115.60 334.93
  Q 1115.26 334.75 1115.25 334.75
  Z"
/>
<path fill="#737373" d="
  M 1240.54 487.02
  A 0.51 0.51 0.0 0 0 1239.62 486.95
  C 1228.61 505.91 1207.23 515.97 1185.51 511.26
  C 1162.16 506.20 1159.20 482.68 1163.14 463.10
  Q 1169.27 432.59 1172.12 421.58
  C 1174.57 412.15 1180.48 384.24 1162.86 385.78
  C 1147.57 387.13 1141.34 409.99 1138.82 421.82
  Q 1129.51 465.56 1120.09 510.09
  Q 1119.95 510.75 1119.27 510.75
  L 1077.05 510.75
  A 0.58 0.58 0.0 0 1 1076.48 510.05
  L 1108.44 359.60
  A 0.45 0.45 0.0 0 1 1108.88 359.25
  L 1151.49 359.25
  A 0.46 0.46 0.0 0 1 1151.94 359.80
  L 1148.79 374.50
  Q 1148.58 375.49 1149.25 374.73
  Q 1164.29 357.78 1185.55 358.33
  C 1224.60 359.34 1219.42 397.05 1213.14 423.18
  Q 1209.21 439.49 1205.40 455.83
  C 1203.49 463.99 1199.58 481.28 1212.17 482.95
  C 1223.90 484.51 1230.40 477.56 1235.34 468.29
  Q 1236.40 466.31 1236.49 463.82
  C 1237.55 431.89 1248.29 398.91 1271.37 375.99
  C 1285.55 361.92 1302.04 356.09 1322.24 356.85
  C 1346.42 357.77 1356.95 375.52 1357.80 397.68
  Q 1357.94 401.28 1358.28 404.85
  Q 1358.32 405.34 1358.82 405.38
  C 1374.69 406.45 1392.79 397.74 1405.69 389.08
  Q 1406.16 388.77 1406.35 388.23
  L 1417.18 356.68
  Q 1417.42 356.00 1418.12 355.91
  L 1461.50 350.05
  Q 1462.04 349.97 1462.07 350.51
  Q 1464.43 401.39 1468.28 451.51
  Q 1469.03 461.33 1467.78 470.92
  A 0.32 0.31 -11.2 0 0 1468.25 471.23
  Q 1479.24 464.95 1489.02 456.92
  Q 1489.53 456.50 1490.19 456.50
  L 1501.21 456.50
  Q 1502.02 456.50 1501.48 457.11
  Q 1482.91 478.15 1458.86 492.44
  Q 1456.27 493.99 1453.50 496.55
  C 1437.01 511.87 1405.06 517.60 1384.90 507.59
  C 1361.93 496.19 1355.28 462.12 1378.22 446.57
  Q 1380.04 445.34 1380.98 443.66
  Q 1391.24 425.42 1399.12 406.06
  Q 1399.46 405.24 1398.70 405.70
  Q 1379.76 417.19 1357.78 420.49
  Q 1357.20 420.58 1357.16 421.16
  C 1353.61 466.93 1326.25 521.32 1270.35 510.35
  C 1257.14 507.76 1245.38 499.93 1240.54 487.02
  Z
  M 1287.69 482.31
  C 1303.87 491.87 1316.46 471.86 1321.78 459.54
  Q 1329.25 442.24 1332.01 422.43
  Q 1332.11 421.70 1331.41 421.49
  Q 1325.43 419.71 1324.39 413.07
  C 1323.15 405.16 1324.96 396.62 1332.84 392.91
  Q 1333.33 392.69 1333.31 392.15
  C 1333.07 386.59 1332.15 376.31 1324.69 375.35
  C 1299.49 372.09 1285.21 429.04 1282.74 446.24
  C 1281.55 454.54 1279.55 477.51 1287.69 482.31
  Z
  M 1419.03 389.73
  A 0.14 0.14 0.0 0 0 1418.76 389.70
  Q 1409.13 418.45 1394.80 445.16
  A 0.90 0.90 0.0 0 0 1395.19 446.39
  C 1410.92 454.09 1394.19 480.97 1380.38 468.23
  Q 1380.01 467.89 1380.02 468.39
  C 1380.10 476.69 1382.34 485.29 1391.54 487.57
  C 1405.17 490.94 1420.45 485.06 1423.61 470.21
  Q 1425.27 462.39 1424.75 455.75
  Q 1422.16 422.99 1419.03 389.73
  Z"
/>
<circle fill="#122d46" cx="978.75" cy="545.91" r="10.02"/>
<circle fill="#122d46" cx="1174.31" cy="545.90" r="10.02"/>
<path fill="#122d46" d="
  M 577.95 616.28
  A 0.55 0.55 0.0 0 0 576.94 616.06
  C 571.28 625.40 559.68 630.44 549.91 624.58
  C 537.85 617.34 541.91 596.62 546.24 585.69
  C 551.80 571.67 562.92 559.67 579.45 562.95
  Q 583.86 563.83 584.69 567.91
  A 0.24 0.23 -44.7 0 0 585.15 567.91
  L 590.89 540.87
  Q 591.07 540.02 591.94 539.90
  L 609.01 537.58
  Q 609.88 537.46 609.70 538.31
  Q 602.22 573.07 595.13 606.92
  Q 594.33 610.71 595.63 613.32
  Q 595.87 613.80 596.36 614.01
  C 602.24 616.53 608.31 611.73 608.64 605.73
  C 609.54 589.80 616.29 570.01 632.49 563.46
  C 642.24 559.52 658.06 560.73 656.65 575.57
  C 655.25 590.28 642.04 599.14 628.23 600.62
  Q 627.72 600.68 627.65 601.18
  C 626.80 607.52 626.78 615.94 635.32 616.36
  C 645.98 616.87 651.94 610.91 658.73 603.90
  Q 659.12 603.50 659.68 603.50
  L 662.24 603.50
  Q 663.25 603.50 662.74 604.37
  C 654.30 618.69 639.97 629.87 622.51 626.33
  C 616.39 625.09 612.27 621.86 610.00 616.18
  A 0.46 0.46 0.0 0 0 609.19 616.09
  Q 601.93 626.44 589.84 626.19
  C 583.42 626.06 578.73 622.77 577.95 616.28
  Z
  M 646.84 572.03
  C 646.65 564.55 638.73 570.59 637.09 573.09
  Q 630.85 582.66 628.88 593.98
  Q 628.79 594.49 629.31 594.45
  C 640.34 593.46 647.10 582.22 646.84 572.03
  Z
  M 563.44 613.56
  C 570.25 618.10 576.22 609.47 577.50 603.49
  Q 580.50 589.50 583.50 575.49
  C 584.20 572.19 580.99 569.91 577.84 570.27
  C 565.18 571.70 560.54 597.69 560.64 607.51
  Q 560.69 611.73 563.44 613.56
  Z"
/>
<path fill="#122d46" d="
  M 1469.53 611.84
  A 0.27 0.27 0.0 0 0 1469.05 611.68
  C 1463.38 619.02 1455.52 624.57 1446.49 626.48
  C 1434.45 629.03 1421.37 624.83 1420.50 610.43
  Q 1419.37 591.75 1429.06 576.31
  C 1435.80 565.57 1448.64 558.85 1461.24 562.74
  C 1469.38 565.26 1469.45 576.06 1466.59 582.67
  C 1462.06 593.15 1451.03 599.48 1439.85 600.54
  Q 1439.36 600.58 1439.27 601.07
  Q 1438.08 607.90 1440.10 612.83
  C 1442.39 618.41 1454.16 616.25 1457.97 614.24
  C 1462.11 612.05 1470.04 605.96 1471.17 600.63
  Q 1477.52 570.64 1483.94 540.79
  A 1.17 1.16 2.1 0 1 1484.93 539.88
  L 1502.27 537.57
  Q 1502.86 537.49 1502.73 538.08
  Q 1495.39 572.67 1488.04 607.25
  Q 1487.19 611.27 1489.11 613.84
  Q 1489.43 614.27 1489.96 614.38
  C 1497.28 616.02 1502.32 610.61 1504.16 604.07
  Q 1504.32 603.51 1504.89 603.51
  L 1508.96 603.49
  Q 1509.63 603.49 1509.43 604.12
  Q 1506.81 612.38 1502.70 617.44
  C 1493.72 628.50 1469.46 633.63 1469.53 611.84
  Z
  M 1456.44 568.58
  C 1447.42 567.23 1441.46 587.72 1440.35 593.98
  Q 1440.26 594.50 1440.78 594.45
  C 1450.38 593.47 1457.33 584.34 1458.44 575.27
  Q 1458.91 571.47 1457.38 569.19
  Q 1457.04 568.68 1456.44 568.58
  Z"
/>
<path fill="#122d46" d="
  M 828.14 567.26
  C 839.85 558.05 856.43 560.99 857.56 578.20
  C 858.89 598.30 851.58 627.40 825.99 626.98
  Q 819.98 626.89 816.19 623.32
  Q 815.73 622.88 815.60 623.50
  L 809.34 653.02
  Q 809.23 653.56 808.69 653.69
  L 790.50 657.93
  A 0.32 0.31 -0.6 0 1 790.12 657.56
  L 798.12 620.16
  Q 798.32 619.19 797.60 619.87
  Q 790.96 626.06 782.21 626.92
  C 770.93 628.02 766.71 613.99 765.76 605.59
  A 0.34 0.34 0.0 0 0 765.16 605.41
  L 748.50 625.78
  Q 748.17 626.18 747.66 626.19
  L 739.75 626.38
  A 0.41 0.41 0.0 0 1 739.44 625.70
  L 764.13 597.82
  Q 764.47 597.43 764.41 596.91
  C 763.64 590.68 763.03 579.32 759.95 574.06
  C 757.44 569.76 751.57 576.22 750.15 578.52
  Q 743.32 589.63 741.06 602.61
  Q 740.97 603.13 740.51 603.37
  L 739.71 603.78
  Q 739.34 603.97 739.12 604.34
  C 731.92 616.39 720.82 626.39 706.24 626.96
  C 693.91 627.45 685.14 621.59 685.02 608.50
  C 684.86 591.91 692.23 568.97 709.92 563.15
  C 715.40 561.35 724.54 560.72 729.33 564.57
  C 734.46 568.69 733.59 577.68 731.12 583.04
  C 726.25 593.62 715.83 599.32 704.54 600.65
  Q 704.03 600.71 703.95 601.22
  C 703.38 604.81 703.33 611.88 706.33 614.49
  C 710.16 617.83 719.17 616.17 722.60 614.36
  C 725.94 612.60 734.88 605.94 735.90 601.16
  C 738.26 590.14 744.38 572.79 753.48 566.06
  C 759.15 561.86 769.60 560.05 774.91 566.32
  C 779.06 571.22 779.24 579.97 780.08 586.23
  Q 780.17 586.91 780.62 586.40
  C 784.64 581.97 789.99 575.55 791.08 569.28
  Q 791.20 568.59 790.51 568.72
  C 781.21 570.47 779.59 555.60 791.28 555.76
  C 798.93 555.87 799.54 567.08 798.01 572.02
  C 795.56 579.98 787.20 588.37 781.50 594.44
  Q 781.14 594.82 781.21 595.35
  C 781.79 599.96 781.68 615.29 790.66 614.66
  C 797.53 614.18 800.82 607.03 802.07 601.20
  Q 806.63 579.90 811.13 558.58
  Q 811.25 558.04 811.81 558.03
  L 828.89 557.99
  A 0.58 0.58 0.0 0 1 829.46 558.70
  L 827.58 566.90
  Q 827.36 567.87 828.14 567.26
  Z
  M 705.79 594.47
  C 716.18 593.10 723.16 583.15 723.26 573.00
  C 723.29 570.46 722.42 568.04 719.34 568.59
  C 711.61 569.96 706.52 587.09 705.16 593.80
  A 0.57 0.56 2.1 0 0 705.79 594.47
  Z
  M 819.23 615.09
  C 830.15 619.38 836.19 606.08 838.24 597.74
  C 839.54 592.47 844.37 569.48 833.13 571.62
  C 828.23 572.55 825.75 575.92 824.67 580.90
  Q 821.23 596.85 817.94 612.72
  A 2.10 2.09 -73.6 0 0 819.23 615.09
  Z"
/>
<path fill="#122d46" d="
  M 907.72 613.30
  A 0.35 0.35 0.0 0 0 907.10 613.01
  Q 897.26 625.25 881.96 626.96
  C 868.99 628.42 859.54 621.47 859.46 607.86
  C 859.34 587.63 870.70 560.39 894.90 561.84
  C 903.10 562.33 908.25 566.34 907.55 575.02
  C 906.34 590.01 892.78 599.35 878.77 600.61
  A 0.39 0.38 -88.1 0 0 878.42 600.95
  C 877.78 605.72 877.50 615.23 884.08 616.12
  C 895.50 617.66 902.37 611.55 909.46 603.85
  Q 909.80 603.48 909.90 602.99
  L 918.36 563.23
  A 0.48 0.47 -83.9 0 1 918.82 562.85
  L 935.83 562.78
  A 0.73 0.72 6.0 0 1 936.55 563.66
  L 935.17 569.99
  A 0.35 0.35 0.0 0 0 935.76 570.32
  C 959.08 547.76 967.45 583.61 948.49 581.48
  C 945.45 581.13 944.87 576.57 944.16 574.17
  Q 944.01 573.65 943.50 573.47
  C 940.67 572.47 936.81 575.01 934.83 576.81
  Q 933.39 578.10 932.91 580.40
  Q 928.15 603.11 923.35 625.83
  Q 923.25 626.28 922.79 626.28
  L 905.78 626.24
  A 0.64 0.64 0.0 0 1 905.16 625.46
  L 907.72 613.30
  Z
  M 895.81 568.72
  C 886.77 567.36 880.89 586.61 879.82 594.09
  Q 879.76 594.53 880.20 594.47
  C 889.84 593.27 896.72 584.16 897.75 575.03
  Q 898.15 571.44 896.66 569.25
  Q 896.35 568.80 895.81 568.72
  Z"
/>
<path fill="#122d46" d="
  M 991.11 616.09
  A 0.20 0.20 0.0 0 0 990.76 616.05
  C 978.98 631.69 951.65 632.73 957.34 604.87
  Q 961.56 584.21 966.06 563.61
  Q 966.17 563.09 966.71 563.08
  L 983.55 562.79
  A 0.75 0.75 0.0 0 1 984.29 563.70
  Q 979.39 585.93 975.03 607.95
  C 972.90 618.68 985.30 614.79 988.54 609.73
  Q 989.67 607.97 989.86 604.94
  C 990.78 590.23 996.94 572.17 1010.89 564.77
  C 1017.01 561.52 1030.87 559.42 1035.79 566.25
  C 1039.06 570.77 1038.15 579.57 1035.72 583.99
  Q 1027.60 598.77 1009.43 600.45
  Q 1008.88 600.51 1008.82 601.06
  C 1008.15 607.10 1007.66 615.51 1016.12 616.29
  C 1025.60 617.17 1032.89 611.71 1038.84 604.92
  Q 1040.24 603.32 1040.72 601.06
  Q 1044.68 582.36 1048.71 563.57
  A 0.73 0.73 0.0 0 1 1049.42 563.00
  L 1066.31 562.96
  A 0.68 0.68 0.0 0 1 1066.97 563.80
  L 1065.72 568.76
  A 0.31 0.31 0.0 0 0 1066.25 569.04
  Q 1074.35 560.16 1086.24 563.30
  C 1101.60 567.36 1091.05 596.45 1088.80 606.56
  C 1085.93 619.45 1102.08 616.02 1102.76 604.39
  C 1103.90 584.99 1115.35 560.57 1138.11 561.82
  Q 1144.45 562.17 1147.64 565.16
  C 1153.00 570.17 1151.77 586.37 1140.83 581.82
  A 1.43 1.42 -67.7 0 1 1140.06 579.96
  C 1141.11 577.43 1142.95 567.87 1137.28 568.53
  C 1126.59 569.79 1115.99 609.80 1124.88 615.18
  Q 1126.27 616.02 1128.78 616.26
  C 1138.68 617.19 1145.55 611.75 1151.77 604.84
  Q 1153.17 603.29 1153.63 601.06
  Q 1157.56 582.17 1161.65 563.34
  Q 1161.77 562.78 1162.34 562.78
  L 1179.52 562.82
  A 0.38 0.38 0.0 0 1 1179.89 563.28
  Q 1175.22 585.28 1170.59 607.32
  C 1167.91 620.08 1185.04 614.79 1185.40 605.20
  C 1186.13 585.88 1198.56 559.00 1221.97 562.51
  Q 1226.56 563.19 1228.34 567.94
  Q 1229.30 570.50 1229.03 567.74
  Q 1228.83 565.65 1229.52 563.61
  A 1.30 1.29 -80.4 0 1 1230.76 562.72
  L 1247.24 562.83
  A 0.58 0.58 0.0 0 1 1247.81 563.54
  Q 1242.97 585.78 1238.57 607.52
  C 1237.89 610.87 1238.29 614.37 1241.89 615.31
  C 1248.51 617.02 1252.00 608.85 1253.56 604.13
  Q 1253.77 603.50 1254.44 603.50
  L 1258.31 603.50
  Q 1258.99 603.50 1258.78 604.15
  C 1255.28 615.06 1248.80 624.65 1237.02 626.62
  C 1228.82 628.00 1222.48 624.99 1221.40 616.22
  A 0.56 0.56 0.0 0 0 1220.37 616.00
  C 1212.75 628.60 1193.07 632.74 1186.75 616.34
  Q 1186.47 615.61 1186.02 616.24
  C 1177.40 628.41 1153.66 634.36 1152.03 612.19
  Q 1151.97 611.35 1151.43 611.99
  C 1143.46 621.38 1134.02 627.37 1121.50 626.94
  C 1113.51 626.66 1107.44 623.95 1104.22 616.57
  A 0.31 0.31 0.0 0 0 1103.68 616.53
  C 1093.16 633.27 1066.28 631.07 1072.06 604.89
  Q 1074.32 594.70 1076.38 584.46
  C 1077.06 581.08 1077.56 573.96 1072.26 573.94
  C 1066.29 573.92 1063.11 582.09 1062.09 586.82
  Q 1057.87 606.30 1053.74 625.80
  Q 1053.65 626.25 1053.19 626.25
  L 1036.07 626.25
  Q 1035.37 626.25 1035.51 625.57
  L 1038.08 613.50
  Q 1038.42 611.94 1037.39 613.17
  C 1029.40 622.73 1019.37 627.65 1006.73 626.90
  Q 995.39 626.23 991.11 616.09
  Z
  M 1025.49 568.45
  C 1016.67 569.04 1011.54 586.17 1010.02 593.84
  A 0.49 0.49 0.0 0 0 1010.54 594.42
  C 1021.94 593.36 1028.91 581.34 1028.11 570.73
  A 2.48 2.46 85.9 0 0 1025.49 568.45
  Z
  M 1206.19 613.06
  C 1210.72 617.22 1216.68 612.94 1219.13 608.59
  Q 1220.24 606.63 1221.23 602.19
  Q 1224.05 589.59 1226.63 576.93
  C 1227.24 573.93 1226.72 571.00 1223.49 570.28
  C 1209.40 567.17 1199.40 606.85 1206.19 613.06
  Z"
/>
<path fill="#122d46" d="
  M 1327.97 613.55
  A 0.36 0.36 0.0 0 0 1327.35 613.23
  C 1318.19 623.95 1303.48 630.65 1289.82 625.12
  C 1281.56 621.77 1279.32 613.72 1279.73 605.50
  C 1280.71 585.77 1291.86 559.84 1315.88 561.88
  C 1324.38 562.60 1328.87 567.30 1327.70 576.02
  C 1325.76 590.52 1313.11 599.20 1299.41 600.58
  Q 1298.92 600.63 1298.83 601.11
  C 1297.90 606.34 1297.89 614.70 1304.32 616.15
  C 1313.97 618.33 1322.80 611.60 1328.76 604.86
  Q 1330.15 603.28 1330.62 601.03
  Q 1334.57 582.25 1338.61 563.48
  Q 1338.71 563.00 1339.20 562.99
  L 1355.73 562.69
  Q 1357.07 562.67 1356.77 563.98
  L 1355.74 568.48
  Q 1355.44 569.76 1356.34 568.80
  Q 1362.77 561.97 1371.65 562.53
  C 1382.94 563.23 1385.64 571.72 1384.21 581.69
  Q 1383.45 587.04 1379.02 604.80
  C 1378.62 606.40 1378.56 608.11 1378.55 609.72
  C 1378.48 616.84 1386.57 615.39 1389.80 611.82
  Q 1391.84 609.55 1393.90 604.03
  Q 1394.09 603.51 1394.64 603.51
  L 1398.78 603.49
  Q 1399.38 603.49 1399.21 604.07
  C 1396.25 614.23 1390.08 624.84 1379.31 626.71
  C 1365.52 629.10 1358.79 619.70 1361.62 606.53
  Q 1363.95 595.69 1366.22 584.82
  C 1366.91 581.49 1367.35 574.82 1362.91 573.97
  C 1357.69 572.96 1353.37 580.70 1352.45 584.75
  Q 1349.12 599.37 1343.72 625.66
  Q 1343.60 626.25 1342.99 626.25
  L 1326.16 626.25
  A 0.76 0.76 0.0 0 1 1325.42 625.33
  L 1327.97 613.55
  Z
  M 1314.91 568.58
  C 1306.64 568.51 1301.07 587.81 1299.89 593.98
  Q 1299.79 594.49 1300.31 594.45
  C 1311.57 593.58 1318.36 581.76 1318.06 571.53
  C 1318.02 570.01 1316.56 568.59 1314.91 568.58
  Z"
/>
<path fill="#737373" d="
  M 731.98 724.76
  A 0.55 0.55 0.0 0 0 732.14 725.79
  C 750.72 729.18 759.53 745.90 759.14 764.00
  C 758.48 794.66 741.87 835.41 704.32 832.09
  C 685.48 830.42 678.96 819.01 686.65 801.58
  Q 686.89 801.05 687.30 801.46
  C 689.82 803.97 692.57 806.61 695.68 807.95
  C 707.23 812.95 716.21 805.50 720.55 795.37
  Q 728.96 775.73 724.95 754.28
  C 721.74 737.10 708.14 735.02 693.23 737.08
  Q 692.65 737.16 692.53 737.73
  L 673.23 827.81
  A 0.55 0.55 0.0 0 1 672.69 828.25
  L 639.37 828.25
  A 0.36 0.36 0.0 0 1 639.02 827.81
  L 671.17 677.43
  A 0.76 0.75 2.2 0 1 671.81 676.84
  L 705.95 672.23
  A 0.38 0.38 0.0 0 1 706.38 672.69
  L 695.40 724.32
  Q 695.29 724.81 695.79 724.82
  C 729.38 725.51 750.30 664.69 704.23 660.99
  C 670.71 658.29 639.94 682.13 640.20 716.94
  C 640.25 724.11 640.14 728.43 643.26 733.90
  A 0.51 0.51 0.0 0 1 642.82 734.66
  C 610.43 735.06 614.37 702.80 627.61 685.36
  C 648.35 658.03 686.36 646.03 719.25 650.99
  Q 728.71 652.42 738.38 658.39
  C 765.41 675.10 756.51 711.46 731.98 724.76
  Z"
/>
<path fill="#737373" d="
  M 845.32 720.26
  L 847.40 709.94
  Q 847.53 709.25 848.24 709.25
  L 881.42 709.25
  A 0.35 0.35 0.0 0 1 881.76 709.68
  Q 872.87 751.50 864.07 793.31
  C 860.64 809.62 877.15 812.39 885.00 801.75
  Q 885.29 801.36 885.27 800.88
  Q 884.65 786.25 896.08 778.17
  Q 897.86 776.91 898.77 775.24
  C 910.62 753.39 919.09 730.82 926.87 707.26
  Q 927.07 706.65 927.71 706.57
  L 961.70 701.97
  Q 962.19 701.90 962.21 702.39
  Q 964.18 741.61 967.23 780.66
  C 967.69 786.52 967.53 791.53 966.74 796.94
  A 0.38 0.38 0.0 0 0 967.33 797.31
  L 980.24 788.80
  Q 980.70 788.50 980.73 787.94
  C 982.82 755.25 999.07 712.64 1037.00 707.73
  C 1051.00 705.93 1069.35 708.15 1070.78 726.03
  C 1073.21 756.66 1045.17 777.86 1017.02 780.06
  Q 1016.53 780.10 1016.45 780.58
  Q 1014.98 789.41 1016.65 798.06
  C 1018.05 805.30 1021.55 808.44 1028.70 809.31
  C 1048.89 811.78 1060.52 800.77 1073.62 787.12
  Q 1075.08 785.60 1075.26 784.75
  Q 1087.80 725.85 1100.40 666.96
  A 0.77 0.77 0.0 0 1 1101.06 666.35
  L 1134.92 661.77
  Q 1135.70 661.67 1135.53 662.43
  L 1124.41 714.55
  Q 1124.28 715.20 1124.86 714.88
  C 1132.71 710.61 1138.77 707.76 1147.57 708.78
  C 1162.65 710.52 1169.47 722.84 1171.03 736.58
  C 1175.91 779.56 1153.25 835.54 1100.04 829.05
  Q 1074.66 825.96 1073.39 800.56
  A 0.34 0.34 0.0 0 0 1072.78 800.38
  C 1057.98 819.95 1033.75 833.31 1008.75 828.95
  Q 983.46 824.54 981.11 799.03
  A 0.33 0.32 67.2 0 0 980.58 798.81
  C 972.14 806.03 962.87 811.24 954.41 818.09
  Q 943.88 826.61 930.71 828.71
  C 913.65 831.44 898.87 828.75 888.69 813.64
  Q 888.51 813.38 888.30 813.61
  Q 876.27 827.19 859.04 829.25
  C 844.32 831.01 833.41 824.03 831.93 808.49
  A 0.38 0.38 0.0 0 0 831.25 808.30
  C 821.73 821.23 809.76 831.21 792.92 829.41
  C 778.08 827.83 767.98 818.03 765.61 803.33
  C 759.63 766.22 783.55 702.58 831.37 708.65
  Q 837.34 709.40 840.23 711.47
  Q 844.37 714.43 845.02 720.25
  Q 845.13 721.22 845.32 720.26
  Z
  M 1049.31 720.44
  C 1032.81 713.71 1020.04 758.72 1018.30 768.19
  Q 1018.19 768.79 1018.79 768.73
  C 1034.94 766.96 1047.56 753.46 1051.54 738.31
  C 1052.54 734.49 1054.15 722.41 1049.31 720.44
  Z
  M 804.69 804.31
  C 816.48 812.37 828.62 797.73 831.00 787.24
  Q 834.25 772.99 842.11 735.12
  C 844.55 723.40 833.66 720.01 825.08 725.07
  C 813.41 731.96 806.30 750.93 803.25 763.35
  C 800.99 772.54 795.73 798.19 804.69 804.31
  Z
  M 1115.34 805.88
  C 1144.18 814.23 1160.24 725.46 1135.27 725.48
  Q 1128.22 725.49 1122.35 728.57
  A 2.31 2.31 0.0 0 0 1121.18 730.11
  Q 1114.31 761.20 1107.73 792.23
  C 1106.29 799.03 1108.50 803.90 1115.34 805.88
  Z
  M 909.36 777.38
  C 920.96 783.89 911.41 802.10 899.32 796.08
  Q 898.76 795.80 898.51 796.37
  Q 898.04 797.48 898.26 799.23
  C 899.83 811.59 911.79 812.75 921.15 809.12
  C 930.91 805.34 933.84 795.46 933.02 785.75
  Q 930.84 759.72 928.57 733.47
  A 0.22 0.21 -37.9 0 0 928.15 733.42
  Q 920.45 755.96 909.25 776.99
  Q 909.12 777.24 909.36 777.38
  Z"
/>
<path fill="#737373" d="
  M 1258.58 719.81
  L 1260.46 709.83
  Q 1260.57 709.25 1261.16 709.25
  L 1294.25 709.25
  Q 1294.92 709.25 1294.78 709.90
  Q 1286.02 751.05 1277.47 791.71
  C 1276.16 797.91 1276.44 806.35 1283.50 807.75
  C 1297.42 810.53 1304.29 792.85 1306.60 782.07
  Q 1318.94 724.49 1331.19 666.84
  A 0.61 0.60 2.0 0 1 1331.70 666.37
  L 1366.01 661.72
  A 0.36 0.36 0.0 0 1 1366.41 662.15
  Q 1353.40 723.14 1340.32 784.16
  C 1339.17 789.54 1334.73 803.81 1343.67 806.05
  C 1357.17 809.44 1367.44 795.46 1369.91 783.78
  Q 1382.27 725.36 1394.69 666.93
  Q 1394.79 666.43 1395.31 666.36
  L 1429.50 661.72
  A 0.35 0.35 0.0 0 1 1429.88 662.14
  Q 1415.97 727.56 1402.31 793.11
  C 1401.32 797.87 1401.02 804.47 1406.85 805.96
  C 1419.78 809.25 1429.63 797.48 1432.69 786.20
  Q 1432.81 785.75 1433.28 785.75
  L 1442.23 785.75
  Q 1442.71 785.75 1442.56 786.21
  C 1435.55 807.74 1423.52 824.12 1400.56 828.84
  C 1385.35 831.97 1371.06 825.83 1368.29 809.34
  A 0.25 0.24 -31.8 0 0 1367.85 809.24
  C 1357.89 823.41 1335.30 834.66 1318.31 827.48
  Q 1307.52 822.93 1304.81 809.96
  A 0.32 0.32 0.0 0 0 1304.23 809.84
  Q 1295.87 821.72 1282.35 826.92
  C 1266.10 833.16 1246.67 829.20 1245.03 808.63
  A 0.52 0.51 -30.0 0 0 1244.09 808.38
  C 1236.10 820.03 1223.94 830.16 1209.06 829.68
  C 1184.31 828.87 1176.67 809.17 1177.81 787.50
  C 1179.71 751.08 1203.43 700.01 1248.50 709.22
  Q 1256.62 710.88 1258.10 719.81
  Q 1258.33 721.15 1258.58 719.81
  Z
  M 1213.57 797.93
  C 1215.46 806.28 1224.44 808.43 1231.27 804.70
  Q 1241.16 799.30 1243.76 788.49
  Q 1246.41 777.45 1255.21 734.93
  C 1256.73 727.60 1252.90 722.42 1245.12 722.90
  C 1221.57 724.35 1209.59 780.34 1213.57 797.93
  Z"
/>
</svg>
